<svg xmlns="http://www.w3.org/2000/svg" width="18"  viewBox="0 0 28.954 22.53">
  <path id="link-solid" d="M25.267,26.162A6.944,6.944,0,0,1,35.8,35.131l-.053.077a1.534,1.534,0,0,1-2.5-1.782l.053-.077a3.863,3.863,0,0,0-5.874-4.978l-5.376,5.38a3.861,3.861,0,0,0,4.973,5.874l.077-.1a1.577,1.577,0,0,1,2.137.4,1.534,1.534,0,0,1-.355,2.142l-.077.053a6.928,6.928,0,0,1-8.925-10.536ZM39.4,38.087a6.928,6.928,0,0,1-10.536-8.926l.053-.077a1.534,1.534,0,0,1,2.5,1.782l-.053.077a3.863,3.863,0,0,0,5.874,4.978l5.376-5.38a3.861,3.861,0,0,0-4.973-5.874l-.077.053a1.567,1.567,0,0,1-2.137-.356,1.531,1.531,0,0,1,.355-2.139l.077-.054a6.927,6.927,0,0,1,8.926,10.535Z" transform="translate(-17.858 -20.881)"/>
</svg>
