<svg xmlns="http://www.w3.org/2000/svg" width="18" viewBox="0 0 25.742 25.742">
  <path id="whatsapp" d="M21.887,35.741A12.76,12.76,0,0,0,1.81,51.134L0,57.742l6.763-1.776a12.717,12.717,0,0,0,6.1,1.551h.006a12.675,12.675,0,0,0,9.021-21.778ZM12.865,55.369a10.584,10.584,0,0,1-5.4-1.477l-.385-.23L3.068,54.714,4.137,50.8l-.253-.4a10.623,10.623,0,1,1,19.7-5.637A10.721,10.721,0,0,1,12.865,55.369Zm5.815-7.941c-.316-.161-1.885-.931-2.178-1.034s-.506-.161-.718.161-.822,1.034-1.011,1.253-.373.241-.69.08A8.676,8.676,0,0,1,9.745,44.1c-.328-.563.328-.523.937-1.741a.591.591,0,0,0-.029-.557c-.08-.161-.718-1.73-.983-2.367-.259-.621-.523-.534-.718-.546s-.4-.011-.609-.011a1.181,1.181,0,0,0-.85.4,3.582,3.582,0,0,0-1.115,2.66,6.244,6.244,0,0,0,1.3,3.3,14.243,14.243,0,0,0,5.447,4.815c2.023.873,2.816.948,3.827.8A3.265,3.265,0,0,0,19.1,49.324a2.666,2.666,0,0,0,.184-1.517C19.209,47.664,19,47.583,18.681,47.428Z" transform="translate(0 -32)"/>
</svg>
