<svg width="90px" height="30px" viewBox="0 0 2176 837" version="1.1" xmlns="http://www.w3.org/2000/svg" xmlns:xlink="http://www.w3.org/1999/xlink" xml:space="preserve" xmlns:serif="http://www.serif.com/" style="fill-rule:evenodd;clip-rule:evenodd;stroke-linejoin:round;stroke-miterlimit:2;">
    <g transform="matrix(1,0,0,1,-913.317,-1612.71)">
        <path d="M1344.21,2093.31C1370.64,2077.26 1403.11,2071.04 1434.64,2076.02C1434.64,2076.02 1434.64,2076.02 1434.64,2076.02C1466.58,2081.07 1494.95,2097.19 1513.5,2120.84C1532.05,2144.49 1539.26,2173.74 1533.55,2202.14C1523.82,2250.54 1524.02,2249.57 1514.29,2297.96C1502.4,2357.11 1438.84,2396.54 1372.32,2386.04C1372.32,2386.04 1372.32,2386.04 1372.32,2386.04C1340.46,2381 1312.15,2364.95 1293.6,2341.39L1271.64,2449.04L1151.35,2449.04L1228.82,2069.25L1349.11,2069.25L1344.21,2093.31ZM2354.58,2037.91L2409.95,2037.91L2401.79,2072.8L2347.32,2072.8L2305.37,2274.57C2302.92,2286.35 2305.52,2298.61 2312.54,2308.38C2319.56,2318.14 2330.35,2324.52 2342.29,2325.96C2342.29,2325.96 2342.29,2325.96 2342.3,2325.96C2364.43,2328.62 2384.93,2313.89 2389.47,2292.06C2391.62,2281.71 2396.84,2257.01 2402.31,2231.22L2414.6,2165.58C2425.71,2106.27 2488.74,2066 2555.39,2075.62C2555.39,2075.62 2555.39,2075.62 2555.39,2075.62C2587.4,2080.24 2615.97,2095.99 2634.83,2119.39C2635.83,2120.63 2636.79,2121.88 2637.73,2123.15L2648.28,2072.43L2770.1,2072.43L2728.07,2274.57C2725.62,2286.35 2728.22,2298.61 2735.24,2308.38C2742.26,2318.14 2753.05,2324.52 2764.99,2325.96C2764.99,2325.96 2764.99,2325.96 2764.99,2325.96C2787.13,2328.62 2807.62,2313.89 2812.16,2292.06C2817.5,2266.38 2832.62,2196.17 2832.62,2196.17L2863.64,2196.02C2863.64,2196.02 2863.77,2195.19 2842.37,2298.14C2836.66,2325.57 2818.94,2349.86 2793.09,2365.67C2767.25,2381.48 2735.4,2387.51 2704.55,2382.44C2704.24,2382.39 2704.09,2382.37 2704.09,2382.37L2704.09,2382.35C2703.73,2382.28 2703.37,2382.22 2703.01,2382.15C2672.62,2376.89 2645.74,2361.23 2628.18,2338.53C2626.61,2336.5 2625.12,2334.42 2623.72,2332.31C2615.02,2345.98 2603.03,2357.96 2588.41,2367.3C2562.01,2384.18 2529.19,2391.06 2497.19,2386.44C2497.19,2386.44 2497.19,2386.44 2497.19,2386.44C2465.18,2381.82 2436.6,2366.07 2417.74,2342.67C2414.02,2338.05 2410.74,2333.22 2407.91,2328.2C2399.07,2343.06 2386.26,2355.97 2370.4,2365.67C2344.55,2381.48 2312.7,2387.51 2281.85,2382.44C2281.55,2382.39 2281.39,2382.37 2281.39,2382.37L2281.39,2382.35C2281.03,2382.28 2280.67,2382.22 2280.31,2382.15C2249.93,2376.89 2223.05,2361.23 2205.48,2338.53C2203.03,2335.36 2200.78,2332.09 2198.75,2328.73C2189.92,2343.37 2177.23,2356.08 2161.55,2365.67C2135.71,2381.48 2103.86,2387.51 2073.01,2382.44C2072.7,2382.39 2072.54,2382.37 2072.54,2382.37L2072.55,2382.35C2072.19,2382.28 2071.83,2382.22 2071.47,2382.15C2041.08,2376.89 2014.2,2361.23 1996.64,2338.53C1995.06,2336.5 1993.58,2334.42 1992.18,2332.31C1983.48,2345.98 1971.49,2357.96 1956.87,2367.3C1935.93,2380.68 1910.96,2387.78 1885.56,2387.84L1885.19,2387.84C1878.68,2387.84 1872.15,2387.37 1865.65,2386.44C1865.65,2386.44 1865.64,2386.44 1865.64,2386.44C1833.64,2381.82 1805.06,2366.07 1786.2,2342.67C1782.77,2338.41 1779.71,2333.96 1777.04,2329.36L1776.98,2329.27C1768.16,2343.68 1755.59,2356.2 1740.11,2365.67C1714.26,2381.48 1682.41,2387.51 1651.56,2382.44C1651.26,2382.39 1651.1,2382.37 1651.1,2382.37L1651.1,2382.35C1650.74,2382.28 1650.38,2382.22 1650.02,2382.15C1619.63,2376.89 1592.76,2361.23 1575.19,2338.53C1557.41,2315.55 1550.62,2287.24 1556.33,2259.81L1587.16,2111.53L1708.98,2111.53L1675.08,2274.57C1672.63,2286.35 1675.23,2298.61 1682.25,2308.38C1689.27,2318.14 1700.06,2324.52 1712,2325.96C1712,2325.96 1712,2325.96 1712,2325.96C1734.14,2328.62 1754.64,2313.89 1759.18,2292.06C1760.19,2287.21 1761.87,2279.2 1763.94,2269.4C1764.21,2266.81 1764.59,2264.22 1765.07,2261.64C1774.16,2213.12 1773.98,2214.09 1783.06,2165.58C1793.06,2112.18 1845.16,2074.21 1904.09,2074.2L1904.47,2074.2C1910.86,2074.22 1917.34,2074.68 1923.85,2075.62C1923.85,2075.62 1923.85,2075.62 1923.85,2075.62C1955.86,2080.24 1984.43,2095.99 2003.29,2119.39C2004.29,2120.63 2005.25,2121.88 2006.19,2123.15L2016.73,2072.43L2138.56,2072.43L2096.53,2274.57C2094.08,2286.35 2096.68,2298.61 2103.7,2308.38C2110.72,2318.14 2121.51,2324.52 2133.45,2325.96C2133.45,2325.96 2133.45,2325.96 2133.45,2325.96C2155.59,2328.62 2176.08,2313.89 2180.62,2292.06C2181.56,2287.56 2183.08,2280.34 2184.94,2271.49C2185.26,2267.59 2185.81,2263.69 2186.62,2259.81L2225.5,2072.8L2177.48,2072.8L2184.72,2037.91L2232.76,2037.91L2241.5,1995.85L2363.32,1995.85L2354.58,2037.91ZM1300.76,2306.32C1301.73,2324.58 1316.76,2340.47 1337.86,2343.8C1337.86,2343.8 1337.87,2343.8 1337.87,2343.8C1362.38,2347.67 1385.8,2333.14 1390.18,2311.34C1401.84,2253.37 1405.3,2236.16 1416.95,2178.19C1421.33,2156.39 1405.01,2135.58 1380.5,2131.71C1380.5,2131.71 1380.5,2131.71 1380.5,2131.71C1360.03,2128.48 1340.31,2138.09 1331.82,2154.04L1300.76,2306.32ZM2610.24,2255.34L2627.46,2163.39C2631.55,2141.53 2614.96,2120.94 2590.4,2117.4C2590.4,2117.4 2590.4,2117.4 2590.4,2117.4C2565.84,2113.85 2542.61,2128.69 2538.52,2150.55C2527.64,2208.67 2524.41,2225.92 2513.52,2284.04C2509.43,2305.9 2526.02,2326.49 2550.58,2330.03C2550.58,2330.03 2550.58,2330.03 2550.58,2330.03C2575.14,2333.58 2598.37,2318.74 2602.46,2296.88L2608.22,2266.14C2608.51,2264.03 2608.88,2261.91 2609.32,2259.81L2610.24,2255.34ZM1951.72,2116.87C1929.94,2116.82 1910.67,2130.83 1906.98,2150.55C1896.09,2208.67 1892.86,2225.92 1881.98,2284.04C1877.89,2305.9 1894.48,2326.49 1919.04,2330.03C1919.04,2330.03 1919.04,2330.03 1919.04,2330.03C1921.44,2330.38 1923.83,2330.55 1926.18,2330.56L1926.47,2330.56C1948.13,2330.49 1967.25,2316.52 1970.92,2296.88L1976.68,2266.14C1976.97,2264.03 1977.34,2261.91 1977.77,2259.81L1978.7,2255.34L1995.92,2163.39C2000.01,2141.53 1983.42,2120.94 1958.86,2117.4C1958.86,2117.4 1958.86,2117.4 1958.86,2117.4C1956.56,2117.07 1954.26,2116.89 1952,2116.88L1951.72,2116.87ZM1720.6,2023.24C1727.45,1991.47 1707.26,1960.17 1675.5,1953.32C1674.21,1953.04 1672.92,1952.76 1671.63,1952.49C1639.87,1945.63 1608.57,1965.83 1601.72,1997.59C1601.72,1997.59 1601.72,1997.59 1601.72,1997.59C1594.87,2029.35 1615.06,2060.66 1646.82,2067.51C1648.11,2067.78 1649.4,2068.06 1650.68,2068.34C1682.45,2075.19 1713.75,2055 1720.6,2023.24C1720.6,2023.24 1720.6,2023.24 1720.6,2023.24ZM1128.15,1788.41L1190.44,1805.21C1180.89,1834.74 1165.01,1856.67 1142.8,1871C1120.6,1885.34 1092.42,1892.51 1058.28,1892.51C1016.03,1892.51 981.313,1880.23 954.114,1855.68C926.916,1831.14 913.317,1797.58 913.317,1755.01C913.317,1709.97 926.988,1675 954.331,1650.08C981.674,1625.17 1017.62,1612.71 1062.18,1612.71C1101.1,1612.71 1132.71,1622.49 1157.02,1642.06C1171.48,1653.62 1182.34,1670.23 1189.57,1691.89L1125.99,1704.81C1122.22,1690.78 1114.38,1679.7 1102.44,1671.58C1090.5,1663.46 1076,1659.4 1058.93,1659.4C1035.35,1659.4 1016.22,1666.6 1001.53,1681C986.846,1695.39 979.504,1718.71 979.504,1750.95C979.504,1785.15 986.738,1809.51 1001.21,1824.03C1015.67,1838.55 1034.48,1845.81 1057.63,1845.81C1074.7,1845.81 1089.38,1841.2 1101.68,1831.97C1113.98,1822.74 1122.8,1808.22 1128.15,1788.41ZM2425.37,1887.89L2425.37,1617.32L2489.61,1617.32L2489.61,1887.89L2425.37,1887.89ZM1566.51,1887.89L1566.51,1617.32L1802.4,1617.32L1802.4,1663.1L1630.75,1663.1L1630.75,1723.08L1790.46,1723.08L1790.46,1768.66L1630.75,1768.66L1630.75,1842.3L1808.48,1842.3L1808.48,1887.89L1566.51,1887.89ZM2847.24,1887.89L2847.24,1617.32L3083.12,1617.32L3083.12,1663.1L2911.47,1663.1L2911.47,1723.08L3071.19,1723.08L3071.19,1768.66L2911.47,1768.66L2911.47,1842.3L3089.2,1842.3L3089.2,1887.89L2847.24,1887.89ZM2227.46,1887.89L2227.46,1663.1L2133.06,1663.1L2133.06,1617.32L2385.88,1617.32L2385.88,1663.1L2291.69,1663.1L2291.69,1887.89L2227.46,1887.89ZM1245.77,1887.89L1245.77,1617.32L1380.97,1617.32C1414.97,1617.32 1439.67,1619.75 1455.08,1624.61C1470.49,1629.47 1482.82,1638.12 1492.08,1650.54C1501.34,1662.97 1505.97,1677.18 1505.97,1693.18C1505.97,1713.48 1498.95,1730.24 1484.92,1743.47C1470.88,1756.7 1449.91,1765.03 1421.98,1768.48C1435.87,1775.37 1447.34,1782.94 1456.38,1791.18C1465.42,1799.42 1477.61,1814.07 1492.95,1835.11L1531.79,1887.89L1454.97,1887.89L1408.53,1829.02C1392.04,1807.98 1380.75,1794.72 1374.68,1789.24C1368.6,1783.77 1362.16,1780.01 1355.36,1777.98C1348.56,1775.95 1337.79,1774.94 1323.03,1774.94L1310.01,1774.94L1310.01,1887.89L1245.77,1887.89ZM2631.96,1887.89L2518.25,1617.32L2587.91,1617.32L2668.42,1817.57L2746.33,1617.32L2814.47,1617.32L2700.54,1887.89L2631.96,1887.89ZM2149.83,1887.89L2079.95,1887.89L2052.18,1826.43L1925.01,1826.43L1898.75,1887.89L1830.61,1887.89L1954.52,1617.32L2022.45,1617.32L2149.83,1887.89ZM2031.56,1780.85L1987.73,1680.44L1944.76,1780.85L2031.56,1780.85ZM1310.01,1731.75L1357.53,1731.75C1388.35,1731.75 1407.59,1730.64 1415.26,1728.43C1422.92,1726.22 1428.93,1722.4 1433.27,1716.99C1437.61,1711.57 1439.78,1704.81 1439.78,1696.68C1439.78,1687.58 1436.92,1680.23 1431.21,1674.63C1425.49,1669.03 1417.43,1665.49 1407.01,1664.02C1401.8,1663.4 1386.18,1663.1 1360.14,1663.1L1310.01,1663.1L1310.01,1731.75Z" style="fill-opacity:0.98;"/>
    </g>
</svg>
