<svg xmlns="http://www.w3.org/2000/svg" width="18"  viewBox="0 0 25.964 30.671">
  <path id="paypal-brands" d="M7.611,47.33c-.237,1.3-1.177,7.351-1.454,9.063-.02.122-.068.169-.2.169H.909a.822.822,0,0,1-.818-.94L4.054,30.47a1.374,1.374,0,0,1,1.353-1.143c10.3,0,11.166-.25,13.8.771,4.065,1.576,4.437,5.377,2.976,9.489-1.454,4.234-4.9,6.053-9.475,6.107-2.935.047-4.7-.473-5.093,1.637ZM24.228,37.6c-.122-.088-.169-.122-.2.088a15.829,15.829,0,0,1-.6,2.272c-2.7,7.7-10.178,7.027-13.831,7.027a.68.68,0,0,0-.737.636C7.334,57.116,7.029,59.1,7.029,59.1a.72.72,0,0,0,.717.872h4.295a1.213,1.213,0,0,0,1.177-1.008c.047-.365-.074.413.974-6.175.311-1.488.967-1.332,1.982-1.332,4.8,0,8.549-1.948,9.664-7.595.44-2.354.311-4.829-1.61-6.263Z" transform="translate(-0.083 -29.3)" fill="#fff"/>
</svg>
