<svg xmlns="http://www.w3.org/2000/svg" width="84.286" height="59" viewBox="0 0 84.286 59">
  <path id="cloud-arrow-down-solid" d="M18.964,91a18.969,18.969,0,0,1-6.3-36.862q-.026-.533-.026-1.067A21.073,21.073,0,0,1,51.981,42.562,11.713,11.713,0,0,1,59,40.429,12.571,12.571,0,0,1,71.643,53.071a12.784,12.784,0,0,1-.843,4.557A16.856,16.856,0,0,1,67.429,91ZM39.9,79.424a2.861,2.861,0,0,0,4.359,0L54.8,68.888a2.861,2.861,0,0,0,0-4.359,3.044,3.044,0,0,0-4.359,0L45.3,69.678V52.018a3.161,3.161,0,1,0-6.321,0V69.678l-5.255-5.149a3.082,3.082,0,0,0-4.359,4.359Z" transform="translate(0 -32)"/>
</svg>
