<svg xmlns="http://www.w3.org/2000/svg" width="28.66" height="25.575" viewBox="0 0 28.66 25.575">
  <path id="cart-shopping-solid_1_" data-name="cart-shopping-solid (1)" d="M4.8,0A1.2,1.2,0,0,1,5.974.975l.075.624H27.064A1.62,1.62,0,0,1,28.6,3.629l-2.7,9.593a1.6,1.6,0,0,1-1.539,1.164H8.527l.46,2.4h15.39a1.2,1.2,0,0,1,0,2.4H7.947a1.193,1.193,0,0,1-1.134-.974L3.8,2.4H1.2A1.2,1.2,0,0,1,1.2,0Zm1.6,23.177a2.4,2.4,0,1,1,2.4,2.4A2.4,2.4,0,0,1,6.394,23.177Zm19.181,0a2.4,2.4,0,1,1-2.4-2.4A2.4,2.4,0,0,1,25.575,23.177Z"/>
</svg>
